<svg xmlns="http://www.w3.org/2000/svg" width="512" height="512" viewBox="0 0 24 24">
  <!-- Brain icon - filled version for better visibility -->
  <path d="M12 5a3 3 0 1 0-5.997.125 4 4 0 0 0-2.526 5.77 4 4 0 0 0 .556 6.588A4 4 0 1 0 12 18Z" fill="#f97316"/>
  <path d="M12 5a3 3 0 1 1 5.997.125 4 4 0 0 1 2.526 5.77 4 4 0 0 1-.556 6.588A4 4 0 1 1 12 18Z" fill="#ea580c"/>
  <!-- Center line -->
  <path d="M12 5v13" stroke="#ffffff" stroke-width="1.5" stroke-linecap="round" fill="none"/>
  <!-- Brain details -->
  <path d="M15 13a4.5 4.5 0 0 1-3-4 4.5 4.5 0 0 1-3 4" stroke="#ffffff" stroke-width="1.2" stroke-linecap="round" fill="none"/>
</svg>
